<svg width="20" height="20" viewBox="0 0 20 20" fill="none"
                                xmlns="http://www.w3.org/2000/svg">
                                <path opacity="0.4"
                                    d="M10 20C15.5228 20 20 15.5228 20 10C20 4.47715 15.5228 0 10 0C4.47715 0 0 4.47715 0 10C0 15.5228 4.47715 20 10 20Z"
                                    fill="#1BD363" />
                                <path
                                    d="M8.57994 13.5801C8.37994 13.5801 8.18994 13.5001 8.04994 13.3601L5.21994 10.5301C4.92994 10.2401 4.92994 9.7601 5.21994 9.4701C5.50994 9.1801 5.98994 9.1801 6.27994 9.4701L8.57994 11.7701L13.7199 6.6301C14.0099 6.3401 14.4899 6.3401 14.7799 6.6301C15.0699 6.9201 15.0699 7.4001 14.7799 7.6901L9.10994 13.3601C8.96994 13.5001 8.77994 13.5801 8.57994 13.5801Z"
                                    fill="#1BD363" />
                            </svg>