<svg width="32" height="32" viewBox="0 0 32 32" fill="none" xmlns="http://www.w3.org/2000/svg">
<path opacity="0.4" d="M29.3334 10.4134V21.5868C29.3334 26.4401 26.4401 29.3334 21.5868 29.3334H10.4134C10.1467 29.3334 9.88008 29.3201 9.62675 29.3067C7.98675 29.2001 6.60008 28.7334 5.50675 27.9334C4.94675 27.5467 4.45341 27.0534 4.06675 26.4934C3.14675 25.2267 2.66675 23.5734 2.66675 21.5868V10.4134C2.66675 5.82675 5.25341 2.98675 9.62675 2.70675C9.88008 2.68008 10.1467 2.66675 10.4134 2.66675H21.5868C23.5734 2.66675 25.2267 3.14675 26.4934 4.06675C27.0534 4.45341 27.5467 4.94675 27.9334 5.50675C28.8534 6.77342 29.3334 8.42675 29.3334 10.4134Z" fill="#F0F9FF"/>
<path d="M15.1867 19.1734H14.6933V10.5468H18.12C18.2667 10.5468 18.3867 10.6668 18.3867 10.8134V11.8534C18.3867 12.4001 18.84 12.8534 19.3867 12.8534C19.9333 12.8534 20.3867 12.4001 20.3867 11.8534V10.8001C20.3867 9.54678 19.3733 8.53345 18.12 8.53345H9.26667C8.01333 8.53345 7 9.54678 7 10.8001V11.8401C7 12.4001 7.45333 12.8401 8 12.8401C8.54667 12.8401 9 12.4001 9 11.8401V10.8001C9 10.6534 9.12 10.5334 9.26667 10.5334H12.6933V19.1734H11.36C10.8133 19.1734 10.36 19.6268 10.36 20.1734C10.36 20.7201 10.8133 21.1734 11.36 21.1734H15.1733C15.72 21.1734 16.1733 20.7201 16.1733 20.1734C16.1733 19.6268 15.7333 19.1734 15.1867 19.1734Z" fill="#F0F9FF"/>
<path d="M23.0932 13.8667H18.2932C17.7465 13.8667 17.2932 14.32 17.2932 14.8667C17.2932 15.4134 17.7465 15.8667 18.2932 15.8667H18.9332V21.4667H18.4665C17.9199 21.4667 17.4665 21.92 17.4665 22.4667C17.4665 23.0134 17.9199 23.4667 18.4665 23.4667H21.3999C21.9465 23.4667 22.3999 23.0134 22.3999 22.4667C22.3999 21.92 21.9465 21.4667 21.3999 21.4667H20.9332V15.8667H22.9999V16.32C22.9999 16.8667 23.4532 17.32 23.9999 17.32C24.5465 17.32 24.9999 16.8667 24.9999 16.32V15.7734C24.9999 14.72 24.1465 13.8667 23.0932 13.8667Z" fill="#F0F9FF"/>
</svg>
