<svg width="32" height="32" viewBox="0 0 32 32" fill="none" xmlns="http://www.w3.org/2000/svg">
<path fill-rule="evenodd" clip-rule="evenodd" d="M10.1044 3.88266C6.41222 4.73923 3.66675 8.04464 3.66675 12.0001C3.66675 12.5524 3.21903 13.0001 2.66675 13.0001C2.11446 13.0001 1.66675 12.5524 1.66675 12.0001C1.66675 6.2878 6.2878 1.66675 12.0001 1.66675C12.3604 1.66675 12.6928 1.86054 12.8703 2.17405C13.0478 2.48755 13.0429 2.87231 12.8576 3.18124L11.4576 5.51457C11.1734 5.98815 10.5592 6.14172 10.0856 5.85758C9.61202 5.57343 9.45846 4.95917 9.7426 4.48559L10.1044 3.88266ZM29.3334 19.0001C29.8857 19.0001 30.3334 19.4478 30.3334 20.0001C30.3334 25.7124 25.7124 30.3334 20.0001 30.3334C19.6398 30.3334 19.3074 30.1396 19.1299 29.8261C18.9524 29.5126 18.9572 29.1279 19.1426 28.8189L20.5426 26.4856C20.8267 26.012 21.441 25.8584 21.9146 26.1426C22.3881 26.4267 22.5417 27.041 22.2576 27.5146L21.8958 28.1175C25.5879 27.2609 28.3334 23.9555 28.3334 20.0001C28.3334 19.4478 28.7811 19.0001 29.3334 19.0001Z" fill="#F7FEE7"/>
<path d="M21.8665 10.9467L16.8531 8.24003C16.3198 7.96003 15.6931 7.96003 15.1598 8.24003L10.1464 10.9467C9.78644 11.1467 9.55981 11.5334 9.55981 11.9734C9.55981 12.4134 9.78644 12.8 10.1464 13L15.1598 15.7067C15.4265 15.8534 15.7198 15.92 16.0131 15.92C16.3065 15.92 16.5998 15.8534 16.8665 15.7067L21.8798 13C22.2398 12.8 22.4665 12.4134 22.4665 11.9734C22.4531 11.5334 22.2265 11.1467 21.8665 10.9467Z" fill="#F7FEE7"/>
<path opacity="0.4" d="M14.3199 16.6268L9.65324 14.2935C9.29324 14.1202 8.87991 14.1335 8.53324 14.3468C8.18658 14.5602 7.98657 14.9202 7.98657 15.3202V19.7335C7.98657 20.4935 8.41326 21.1868 9.09326 21.5201L13.7599 23.8535C13.9199 23.9335 14.0932 23.9735 14.2799 23.9735C14.4932 23.9735 14.6933 23.9202 14.8799 23.8002C15.2266 23.5868 15.4266 23.2268 15.4266 22.8268V18.4135C15.4266 17.6535 15.0132 16.9735 14.3199 16.6268Z" fill="#F7FEE7"/>
<path opacity="0.4" d="M23.4534 14.3468C23.1067 14.1335 22.6934 14.1202 22.3334 14.2935L17.6667 16.6268C16.9867 16.9735 16.5601 17.6535 16.5601 18.4135V22.8268C16.5601 23.2268 16.76 23.5868 17.1067 23.8002C17.2934 23.9202 17.4934 23.9735 17.7067 23.9735C17.88 23.9735 18.0534 23.9335 18.2267 23.8535L22.8934 21.5201C23.5734 21.1735 24 20.4935 24 19.7335V15.3202C24 14.9202 23.8 14.5602 23.4534 14.3468Z" fill="#F7FEE7"/>
</svg>
