<svg width="32" height="32" viewBox="0 0 32 32" fill="none" xmlns="http://www.w3.org/2000/svg">
<path opacity="0.4" d="M28 9.33342V22.6667C28 26.6667 26 29.3334 21.3333 29.3334H10.6667C6 29.3334 4 26.6667 4 22.6667V9.33342C4 5.33341 6 2.66675 10.6667 2.66675H21.3333C26 2.66675 28 5.33341 28 9.33342Z" fill="#8B5CF6"/>
<path d="M20.6667 2.66675V13.1467C20.6667 13.7334 19.9733 14.0268 19.5467 13.6401L16.4534 10.7867C16.2001 10.5467 15.8 10.5467 15.5467 10.7867L12.4534 13.6401C12.0267 14.0401 11.3334 13.7334 11.3334 13.1467V2.66675H20.6667Z" fill="#8B5CF6"/>
<path d="M23.3333 19.6667H17.6666C17.12 19.6667 16.6666 19.2134 16.6666 18.6667C16.6666 18.1201 17.12 17.6667 17.6666 17.6667H23.3333C23.88 17.6667 24.3333 18.1201 24.3333 18.6667C24.3333 19.2134 23.88 19.6667 23.3333 19.6667Z" fill="#8B5CF6"/>
<path d="M23.3333 25H12C11.4533 25 11 24.5467 11 24C11 23.4533 11.4533 23 12 23H23.3333C23.88 23 24.3333 23.4533 24.3333 24C24.3333 24.5467 23.88 25 23.3333 25Z" fill="#8B5CF6"/>
</svg>
