<svg width="32" height="32" viewBox="0 0 32 32" fill="none" xmlns="http://www.w3.org/2000/svg">
<path opacity="0.4" d="M29.3334 10.4134V20.2134C28.9467 20.0267 28.5201 19.8934 28.0401 19.8134L27.6268 19.7467L27.2801 19.0267C26.5467 17.5334 25.3467 16.6667 24.0001 16.6667C22.6534 16.6667 21.4534 17.5334 20.7201 19.0267L20.3601 19.7467L19.9601 19.8134C18.3734 20.0801 17.2267 20.9601 16.8134 22.2134C16.4134 23.4801 16.8267 24.8667 17.9601 26.0134L18.3734 26.4267L18.3334 26.5867C18.0667 27.7734 18.1734 28.6801 18.4268 29.3334H10.4134C5.56008 29.3334 2.66675 26.4401 2.66675 21.5867V10.4134C2.66675 5.56008 5.56008 2.66675 10.4134 2.66675H21.5868C26.4401 2.66675 29.3334 5.56008 29.3334 10.4134Z" fill="#F8FAFC"/>
<path d="M25.4933 19.9199L25.92 20.7866C26.1333 21.2133 26.68 21.6133 27.1333 21.6933L27.7066 21.7866C29.4533 22.0799 29.8533 23.3599 28.6133 24.6133L28.08 25.1466C27.72 25.5066 27.5333 26.1999 27.64 26.7066L27.7066 27.0266C28.1866 29.1333 27.0666 29.9466 25.2399 28.8399L24.8533 28.5999C24.3866 28.3199 23.6133 28.3199 23.1466 28.5999L22.76 28.8399C20.92 29.9466 19.8133 29.1333 20.2933 27.0266L20.3599 26.7066C20.4666 26.2133 20.28 25.5066 19.92 25.1466L19.3866 24.6133C18.1466 23.3466 18.5466 22.0799 20.2933 21.7866L20.8666 21.6933C21.3333 21.6133 21.8666 21.2133 22.08 20.7866L22.5066 19.9199C23.3333 18.2533 24.6666 18.2533 25.4933 19.9199Z" fill="#F8FAFC"/>
<path fill-rule="evenodd" clip-rule="evenodd" d="M21.506 10.5564C21.9425 10.8947 22.0221 11.5229 21.6837 11.9594L18.5978 15.9403C17.8046 16.9435 16.3422 17.1264 15.3219 16.338L15.3149 16.3326L12.8795 14.4162C12.7291 14.3019 12.5192 14.3304 12.4049 14.4778C12.4048 14.4779 12.405 14.4776 12.4049 14.4778L9.23223 18.5969C8.89522 19.0345 8.26733 19.116 7.82978 18.779C7.39224 18.442 7.31074 17.8141 7.64775 17.3765L10.822 13.2553C11.6139 12.2305 13.0822 12.0453 14.1048 12.8354L14.1117 12.8408L16.5472 14.7573C16.6992 14.8727 16.9135 14.843 17.0269 14.7023L20.103 10.7341C20.4414 10.2976 21.0695 10.218 21.506 10.5564Z" fill="#F8FAFC"/>
</svg>
