<svg width="32" height="32" viewBox="0 0 32 32" fill="none" xmlns="http://www.w3.org/2000/svg">
<path d="M26.0001 10L24.0134 11.9867L20.0134 7.98667L22.0001 6.00001C22.5601 5.44001 23.2801 5.17334 24.0001 5.17334C24.7201 5.17334 25.4401 5.44001 26.0001 6.00001C27.1068 7.10667 27.1068 8.89334 26.0001 10Z" fill="#FFF7ED"/>
<path opacity="0.4" d="M24.0133 11.9866L8.66667 27.3332C7.56 28.4399 5.77334 28.4399 4.66667 27.3332C3.56 26.2266 3.56 24.4399 4.66667 23.3332L20.0133 7.98657L24.0133 11.9866Z" fill="#FFF7ED"/>
<path d="M13.2668 4.66669L13.8134 2.81336C13.8668 2.64002 13.8134 2.45336 13.6934 2.32002C13.5734 2.18669 13.3601 2.13336 13.1868 2.18669L11.3334 2.73336L9.4801 2.18669C9.30677 2.13336 9.1201 2.18669 8.98677 2.30669C8.85344 2.44002 8.81344 2.62669 8.86677 2.80002L9.4001 4.66669L8.85344 6.52002C8.8001 6.69336 8.85344 6.88002 8.97344 7.01336C9.10677 7.14669 9.29344 7.18669 9.46677 7.13336L11.3334 6.60002L13.1868 7.14669C13.2401 7.16002 13.2801 7.17336 13.3334 7.17336C13.4668 7.17336 13.5868 7.12002 13.6934 7.02669C13.8268 6.89336 13.8668 6.70669 13.8134 6.53336L13.2668 4.66669Z" fill="#FFF7ED"/>
<path d="M7.93327 12.6667L8.47994 10.8134C8.53327 10.64 8.47994 10.4534 8.35994 10.32C8.22661 10.1867 8.03994 10.1467 7.86661 10.2L5.99994 10.7334L4.14661 10.1867C3.97327 10.1334 3.78661 10.1867 3.65327 10.3067C3.51994 10.44 3.47994 10.6267 3.53327 10.8L4.06661 12.6667L3.51994 14.52C3.46661 14.6934 3.51994 14.88 3.63994 15.0134C3.77327 15.1467 3.95994 15.1867 4.13327 15.1334L5.98661 14.5867L7.83994 15.1334C7.87994 15.1467 7.93327 15.1467 7.98661 15.1467C8.11994 15.1467 8.23994 15.0934 8.34661 15C8.47994 14.8667 8.51994 14.68 8.46661 14.5067L7.93327 12.6667Z" fill="#FFF7ED"/>
<path d="M27.9335 19.3333L28.4801 17.4799C28.5335 17.3066 28.4801 17.1199 28.3601 16.9866C28.2268 16.8533 28.0401 16.8133 27.8668 16.8666L26.0135 17.4133L24.1601 16.8666C23.9868 16.8133 23.8001 16.8666 23.6668 16.9866C23.5334 17.1199 23.4934 17.3066 23.5468 17.4799L24.0934 19.3333L23.5468 21.1866C23.4934 21.3599 23.5468 21.5466 23.6668 21.6799C23.8001 21.8133 23.9868 21.8533 24.1601 21.7999L26.0135 21.2533L27.8668 21.7999C27.9068 21.8133 27.9601 21.8133 28.0135 21.8133C28.1468 21.8133 28.2668 21.7599 28.3735 21.6666C28.5068 21.5333 28.5468 21.3466 28.4935 21.1733L27.9335 19.3333Z" fill="#FFF7ED"/>
</svg>
