<svg width="32" height="32" viewBox="0 0 32 32" fill="none" xmlns="http://www.w3.org/2000/svg">
<path opacity="0.4" d="M28.8801 13.9199L27.5734 19.4933C26.4534 24.3066 24.2401 26.2533 20.0801 25.8533C19.4134 25.7999 18.6934 25.6799 17.9201 25.4933L15.6801 24.9599C10.1201 23.6399 8.40008 20.8933 9.70674 15.3199L11.0134 9.73326C11.2801 8.59993 11.6001 7.61326 12.0001 6.79993C13.5601 3.57326 16.2134 2.7066 20.6667 3.75993L22.8934 4.27993C28.4801 5.5866 30.1867 8.3466 28.8801 13.9199Z" fill="#FEF2F2"/>
<path d="M20.08 25.8534C19.2533 26.4134 18.2133 26.88 16.9466 27.2934L14.84 27.9867C9.54663 29.6934 6.75997 28.2667 5.03997 22.9734L3.3333 17.7067C1.62663 12.4134 3.03997 9.61338 8.3333 7.90672L10.44 7.21338C10.9866 7.04005 11.5066 6.89338 12 6.80005C11.6 7.61338 11.28 8.60005 11.0133 9.73338L9.70663 15.32C8.39997 20.8934 10.12 23.64 15.68 24.96L17.92 25.4934C18.6933 25.68 19.4133 25.8 20.08 25.8534Z" fill="#FEF2F2"/>
<path d="M23.3201 14.0133C23.2401 14.0133 23.1601 13.9999 23.0667 13.9866L16.6001 12.3466C16.0667 12.2133 15.7467 11.6666 15.8801 11.1333C16.0134 10.5999 16.5601 10.2799 17.0934 10.4133L23.5601 12.0533C24.0934 12.1866 24.4134 12.7333 24.2801 13.2666C24.1734 13.7066 23.7601 14.0133 23.3201 14.0133Z" fill="#FEF2F2"/>
<path d="M19.4133 18.5201C19.3333 18.5201 19.2533 18.5068 19.16 18.4934L15.28 17.5068C14.7467 17.3734 14.4267 16.8268 14.56 16.2934C14.6933 15.7601 15.24 15.4401 15.7733 15.5734L19.6533 16.5601C20.1867 16.6934 20.5067 17.2401 20.3733 17.7734C20.2667 18.2268 19.8667 18.5201 19.4133 18.5201Z" fill="#FEF2F2"/>
</svg>
