<svg width="32" height="32" viewBox="0 0 32 32" fill="none" xmlns="http://www.w3.org/2000/svg">
<path d="M28 7H18.6666C18.12 7 17.6666 6.54667 17.6666 6C17.6666 5.45333 18.12 5 18.6666 5H28C28.5466 5 29 5.45333 29 6C29 6.54667 28.5466 7 28 7Z" fill="#3B82F6"/>
<path opacity="0.4" d="M28 13.6667H18.6666C18.12 13.6667 17.6666 13.2134 17.6666 12.6667C17.6666 12.1201 18.12 11.6667 18.6666 11.6667H28C28.5466 11.6667 29 12.1201 29 12.6667C29 13.2134 28.5466 13.6667 28 13.6667Z" fill="#3B82F6"/>
<path d="M28 20.3333H4C3.45333 20.3333 3 19.8799 3 19.3333C3 18.7866 3.45333 18.3333 4 18.3333H28C28.5467 18.3333 29 18.7866 29 19.3333C29 19.8799 28.5467 20.3333 28 20.3333Z" fill="#3B82F6"/>
<path opacity="0.4" d="M28 27H4C3.45333 27 3 26.5467 3 26C3 25.4533 3.45333 25 4 25H28C28.5467 25 29 25.4533 29 26C29 26.5467 28.5467 27 28 27Z" fill="#3B82F6"/>
<path opacity="0.4" d="M10.56 4.66675H6.77333C4.90667 4.66675 4 5.57341 4 7.44008V11.2401C4 13.1067 4.90667 14.0134 6.77333 14.0134H10.5733C12.44 14.0134 13.3467 13.1067 13.3467 11.2401V7.44008C13.3333 5.57341 12.4267 4.66675 10.56 4.66675Z" fill="#3B82F6"/>
</svg>
