<svg width="32" height="32" viewBox="0 0 32 32" fill="none" xmlns="http://www.w3.org/2000/svg">
<path opacity="0.4" d="M25.6132 8.48001C24.2265 5.68001 21.5465 3.61335 18.4399 2.93335C15.1865 2.21335 11.8532 2.98668 9.30655 5.04001C6.74655 7.08001 5.29321 10.1333 5.29321 13.4C5.29321 16.8533 7.35988 20.4667 10.4799 22.56V23.6667C10.4665 24.04 10.4532 24.6133 10.9065 25.08C11.3732 25.56 12.0665 25.6133 12.6132 25.6133H19.4532C20.1732 25.6133 20.7199 25.4133 21.0932 25.04C21.5999 24.52 21.5865 23.8533 21.5732 23.4933V22.56C25.7065 19.7733 28.3065 13.8933 25.6132 8.48001Z" fill="#F0FDFA"/>
<path d="M20.3465 29.3334C20.2665 29.3334 20.1732 29.32 20.0932 29.2934C17.4132 28.5334 14.5999 28.5334 11.9199 29.2934C11.4265 29.4267 10.9065 29.1467 10.7732 28.6534C10.6265 28.16 10.9199 27.64 11.4132 27.5067C14.4265 26.6534 17.5999 26.6534 20.6132 27.5067C21.1065 27.6534 21.3999 28.16 21.2532 28.6534C21.1199 29.0667 20.7465 29.3334 20.3465 29.3334Z" fill="#F0FDFA"/>
<path d="M16 18.4667C15.8266 18.4667 15.6533 18.4267 15.5066 18.3334C15.0266 18.0534 14.8666 17.44 15.1333 16.9734L16.2666 15H15.1466C14.48 15 13.9333 14.7067 13.64 14.2134C13.3466 13.7067 13.3733 13.0934 13.7066 12.5067L15.1333 10.0267C15.4133 9.5467 16.0266 9.3867 16.4933 9.65336C16.9733 9.93336 17.1333 10.5467 16.8666 11.0134L15.7333 13H16.8533C17.52 13 18.0666 13.2934 18.36 13.7867C18.6533 14.2934 18.6266 14.9067 18.2933 15.4934L16.8666 17.9734C16.68 18.2934 16.3466 18.4667 16 18.4667Z" fill="#F0FDFA"/>
</svg>
