<svg width="32" height="32" viewBox="0 0 32 32" fill="none" xmlns="http://www.w3.org/2000/svg">
<path fill-rule="evenodd" clip-rule="evenodd" d="M10.1043 3.88266C6.41216 4.73923 3.66669 8.04464 3.66669 12.0001C3.66669 12.5524 3.21897 13.0001 2.66669 13.0001C2.1144 13.0001 1.66669 12.5524 1.66669 12.0001C1.66669 6.2878 6.28774 1.66675 12 1.66675C12.3603 1.66675 12.6927 1.86054 12.8702 2.17405C13.0477 2.48755 13.0429 2.87231 12.8575 3.18124L11.4575 5.51457C11.1734 5.98815 10.5591 6.14172 10.0855 5.85758C9.61196 5.57343 9.4584 4.95917 9.74254 4.48559L10.1043 3.88266ZM29.3334 19.0001C29.8856 19.0001 30.3334 19.4478 30.3334 20.0001C30.3334 25.7124 25.7123 30.3334 20 30.3334C19.6397 30.3334 19.3073 30.1396 19.1298 29.8261C18.9523 29.5126 18.9572 29.1279 19.1425 28.8189L20.5425 26.4856C20.8267 26.012 21.4409 25.8584 21.9145 26.1426C22.3881 26.4267 22.5416 27.041 22.2575 27.5146L21.8957 28.1175C25.5879 27.2609 28.3334 23.9555 28.3334 20.0001C28.3334 19.4478 28.7811 19.0001 29.3334 19.0001Z" fill="#10B981"/>
<path d="M21.8666 10.9467L16.8533 8.24003C16.32 7.96003 15.6933 7.96003 15.16 8.24003L10.1466 10.9467C9.78663 11.1467 9.56 11.5334 9.56 11.9734C9.56 12.4134 9.78663 12.8 10.1466 13L15.16 15.7067C15.4266 15.8534 15.72 15.92 16.0133 15.92C16.3067 15.92 16.6 15.8534 16.8666 15.7067L21.88 13C22.24 12.8 22.4667 12.4134 22.4667 11.9734C22.4533 11.5334 22.2266 11.1467 21.8666 10.9467Z" fill="#10B981"/>
<path opacity="0.4" d="M14.32 16.6268L9.6533 14.2935C9.2933 14.1202 8.87997 14.1335 8.5333 14.3468C8.18664 14.5602 7.98663 14.9202 7.98663 15.3202V19.7335C7.98663 20.4935 8.41332 21.1868 9.09332 21.5201L13.76 23.8535C13.92 23.9335 14.0933 23.9735 14.28 23.9735C14.4933 23.9735 14.6933 23.9202 14.88 23.8002C15.2267 23.5868 15.4267 23.2268 15.4267 22.8268V18.4135C15.4267 17.6535 15.0133 16.9735 14.32 16.6268Z" fill="#10B981"/>
<path opacity="0.4" d="M23.4533 14.3468C23.1066 14.1335 22.6933 14.1202 22.3333 14.2935L17.6666 16.6268C16.9866 16.9735 16.56 17.6535 16.56 18.4135V22.8268C16.56 23.2268 16.76 23.5868 17.1066 23.8002C17.2933 23.9202 17.4933 23.9735 17.7066 23.9735C17.88 23.9735 18.0533 23.9335 18.2267 23.8535L22.8933 21.5201C23.5733 21.1735 24 20.4935 24 19.7335V15.3202C24 14.9202 23.8 14.5602 23.4533 14.3468Z" fill="#10B981"/>
</svg>
