<svg width="32" height="32" viewBox="0 0 32 32" fill="none" xmlns="http://www.w3.org/2000/svg">
<path opacity="0.4" d="M28 9.33342V22.6667C28 26.6667 26 29.3334 21.3333 29.3334H10.6667C6 29.3334 4 26.6667 4 22.6667V9.33342C4 5.33341 6 2.66675 10.6667 2.66675H21.3333C26 2.66675 28 5.33341 28 9.33342Z" fill="#FFF7ED"/>
<path d="M20.6666 2.66675V13.1467C20.6666 13.7334 19.9732 14.0268 19.5465 13.6401L16.4533 10.7867C16.2 10.5467 15.7999 10.5467 15.5465 10.7867L12.4533 13.6401C12.0266 14.0401 11.3333 13.7334 11.3333 13.1467V2.66675H20.6666Z" fill="#FFF7ED"/>
<path d="M23.3334 19.6667H17.6667C17.1201 19.6667 16.6667 19.2134 16.6667 18.6667C16.6667 18.1201 17.1201 17.6667 17.6667 17.6667H23.3334C23.8801 17.6667 24.3334 18.1201 24.3334 18.6667C24.3334 19.2134 23.8801 19.6667 23.3334 19.6667Z" fill="#FFF7ED"/>
<path d="M23.3333 25H12C11.4533 25 11 24.5467 11 24C11 23.4533 11.4533 23 12 23H23.3333C23.88 23 24.3333 23.4533 24.3333 24C24.3333 24.5467 23.88 25 23.3333 25Z" fill="#FFF7ED"/>
</svg>
