<svg width="32" height="32" viewBox="0 0 32 32" fill="none" xmlns="http://www.w3.org/2000/svg">
<path d="M16 2.66675C12.5066 2.66675 9.66663 5.50675 9.66663 9.00008C9.66663 12.4267 12.3466 15.2001 15.84 15.3201C15.9466 15.3067 16.0533 15.3067 16.1333 15.3201C16.16 15.3201 16.1733 15.3201 16.2 15.3201C16.2133 15.3201 16.2133 15.3201 16.2266 15.3201C19.64 15.2001 22.32 12.4267 22.3333 9.00008C22.3333 5.50675 19.4933 2.66675 16 2.66675Z" fill="#4338CA"/>
<path opacity="0.4" d="M22.7733 18.88C19.0533 16.4 12.9866 16.4 9.23995 18.88C7.54661 20 6.61328 21.5334 6.61328 23.1734C6.61328 24.8134 7.54661 26.3334 9.22661 27.4534C11.0933 28.7067 13.5466 29.3334 15.9999 29.3334C18.4533 29.3334 20.9066 28.7067 22.7733 27.4534C24.4533 26.32 25.3866 24.8 25.3866 23.1467C25.3733 21.52 24.4533 19.9867 22.7733 18.88Z" fill="#4338CA"/>
<path d="M15.16 25.6801C14.9467 25.6801 14.7333 25.5867 14.5733 25.4401L12.8933 23.7601C12.5733 23.4401 12.5733 22.9067 12.8933 22.5867C13.2133 22.2667 13.7467 22.2667 14.0667 22.5867L15.16 23.6801L17.9333 20.9067C18.2533 20.5867 18.7867 20.5867 19.1067 20.9067C19.4267 21.2267 19.4267 21.7601 19.1067 22.0801L15.7467 25.4401C15.5867 25.6001 15.3733 25.6801 15.16 25.6801Z" fill="#4338CA"/>
</svg>
